<svg preserveAspectRatio="none" overflow="visible" style="display: block;" width="104.739" height="104.739" viewBox="0 0 104.739 104.739" fill="none" xmlns="http://www.w3.org/2000/svg">
<g id="Frame 427320738">
<circle id="Ellipse 56" cx="52.3697" cy="52.3697" r="52.3697" fill="#B3B3B3"/>
<path id="Vector" d="M65.9833 52.1539C66.3715 53.3974 66.7619 54.6963 66.462 55.9583C66.1631 57.2192 64.9428 58.4176 63.4553 58.3788C61.2468 58.3203 60.2832 55.7533 60.9663 53.9357C61.6483 52.1171 63.2807 50.6613 64.0202 48.8602C65.6073 44.9975 62.7691 40.9224 60.0972 37.5353C57.4252 34.1492 54.6794 29.9901 56.4401 26.1836C52.4145 28.566 49.912 32.762 50.0004 36.9826C50.0477 39.1929 50.4329 41.9874 48.1935 43.0505C46.2089 43.9927 43.6295 42.4856 42.9966 40.6055C42.3628 38.7254 43.0654 36.7232 43.762 34.8595C40.1091 38.2744 39.2493 43.7078 41.7066 47.8473C42.399 49.0129 43.3408 50.119 43.5392 51.4189C43.7385 52.7178 42.7729 54.2832 41.2576 54.2627C39.9253 54.2442 39.0029 53.0242 38.8631 51.8771C38.7223 50.731 39.1045 49.5858 39.1219 48.4335C39.1404 47.2802 38.636 45.971 37.3962 45.5507C38.0382 50.9083 33.881 55.789 32.8959 61.1066C31.8071 66.9787 34.0885 76.5322 46.1482 79.1238C44.3044 77.951 42.3238 75.7757 42.3238 71.837C42.3238 67.4514 45.3285 64.1862 45.3285 64.1862C45.6593 65.3477 46.481 66.3206 47.7979 66.2694C49.1138 66.2192 49.7157 65.3662 50.0084 64.0848C50.2221 63.1467 49.9376 62.1759 49.8707 61.2154C49.695 58.672 51.2246 56.0946 53.5451 55.0274C52.7233 56.883 53.4116 59.0368 54.2467 60.8852C55.0818 62.7346 56.0875 64.6486 55.881 66.6661C55.7761 67.6862 55.4351 68.9214 56.221 69.5817C56.9195 70.1702 58.0732 69.7499 58.5631 68.9809C59.0541 68.2111 59.0674 67.2432 59.0655 66.3319C60.935 67.0988 62.1595 69.0517 62.3732 71.0579C62.5868 73.0641 61.9006 75.0899 60.8046 76.7844C60.2376 77.661 59.5667 78.4595 58.8385 79.2079C68.3405 77.1761 71.6646 70.2511 72.0262 65.4052C72.46 59.5914 70.3881 55.4734 65.9833 52.1539Z" fill="white"/>
</g>
</svg>
